
Format                           : AVI
Format/Info                      : Audio Video Interleave
File size                        : 1.01 GiB
Duration                         : 1h 42mn
Overall bit rate                 : 1 415 Kbps
Writing library                  : VirtualDub build 32842/release

Video
ID                               : 0
Format                           : MPEG-4 Visual
Format profile                   : Advanced Simple@L5
Format settings, BVOP            : 1
Format settings, QPel            : No
Format settings, GMC             : No warppoints
Format settings, Matrix          : Default (H.263)
Muxing mode                      : Packed bitstream
Codec ID                         : XVID
Codec ID/Hint                    : XviD
Duration                         : 1h 42mn
Bit rate                         : 1 278 Kbps
Width                            : 658 pixels
Height                           : 282 pixels
Display aspect ratio             : 2.35:1
Frame rate                       : 25.000 fps
Color space                      : YUV
Chroma subsampling               : 4:2:0
Bit depth                        : 8 bits
Scan type                        : Progressive
Compression mode                 : Lossy
Bits/(Pixel*Frame)               : 0.275
Stream size                      : 935 MiB (90%)
Writing library                  : XviD 64

Audio
ID                               : 1
Format                           : MPEG Audio
Format version                   : Version 1
Format profile                   : Layer 3
Codec ID                         : 55
Codec ID/Hint                    : MP3
Duration                         : 1h 41mn
Bit rate mode                    : Constant
Bit rate                         : 128 Kbps
Channel(s)                       : 2 channels
Sampling rate                    : 48.0 KHz
Compression mode                 : Lossy
Delay relative to video          : 9ms
Stream size                      : 93.3 MiB (9%)
Alignment                        : Split accross interleaves
Interleave, duration             : 40 ms (1.00 video frame)
Interleave, preload duration     : 500 ms










 
http://www.imdb.com/title/tt1524137/











Ratings: 6.8/10 from 3,239 users   Metascore: 52/100 
Reviews: 45 user | 95 critic | 34 from Metacritic.com

To protect his brother-in-law from a drug lord, a former smuggler heads to Panama to score millions of dollars in counterfeit bills.
Director:
Baltasar Kormákur
Writers:
Aaron Guzikowski (screenplay), Arnaldur Indriðason (film "Reykjavik-Rotterdam"), and 1 more credit »
Stars:
Mark Wahlberg, Giovanni Ribisi and Kate Beckinsale




















Source Used




Video ..... Unknown ................Thanks

Audio ...... Unknown ...................Thanks

Subs  ...... English...... Unknown.......................Thanks




Regardless of what some may say............This thing needed loads of TLC its still not great imo ,colours change constantly but tried to balance out as much as possible.Think this release is about played out people kinda realising vid aint the greatest.Dont expect too many hits but was asked so here goes


Wont bore with work done just check out the sample provided 


If you dont mind cams then this is perfectly watchable !






Enjoy





Greetz to EMBER,ETRG,BHRG,CreWSaDe,RemixHD,LEGiTiMATE,iNPiRAL,EXQUiSiTE.......and maybe many more 